<?xml version="1.0" encoding="utf-8" standalone="no"?>
<!DOCTYPE svg PUBLIC "-//W3C//DTD SVG 1.1//EN"
  "http://www.w3.org/Graphics/SVG/1.1/DTD/svg11.dtd">
<svg xmlns:xlink="http://www.w3.org/1999/xlink" width="189.36pt" height="45.36pt" viewBox="0 0 189.36 45.36" xmlns="http://www.w3.org/2000/svg" version="1.1">
 <metadata>
  <rdf:RDF xmlns:dc="http://purl.org/dc/elements/1.1/" xmlns:cc="http://creativecommons.org/ns#" xmlns:rdf="http://www.w3.org/1999/02/22-rdf-syntax-ns#">
   <cc:Work>
    <dc:type rdf:resource="http://purl.org/dc/dcmitype/StillImage"/>
    <dc:date>2025-05-02T14:15:25.855061</dc:date>
    <dc:format>image/svg+xml</dc:format>
    <dc:creator>
     <cc:Agent>
      <dc:title>Matplotlib v3.10.1, https://matplotlib.org/</dc:title>
     </cc:Agent>
    </dc:creator>
   </cc:Work>
  </rdf:RDF>
 </metadata>
 <defs>
  <style type="text/css">*{stroke-linejoin: round; stroke-linecap: butt}</style>
 </defs>
 <g id="figure_1">
  <g id="patch_1">
   <path d="M 0 45.36 
L 189.36 45.36 
L 189.36 0 
L 0 0 
L 0 45.36 
z
" style="fill: none"/>
  </g>
  <g id="axes_1">
   <g id="patch_2">
    <path d="M 76.68 40.68 
C 81.453656 40.68 86.032438 38.783406 89.407922 35.407922 
C 92.783406 32.032438 94.68 27.453656 94.68 22.68 
C 94.68 17.906344 92.783406 13.327562 89.407922 9.952078 
C 86.032438 6.576594 81.453656 4.68 76.68 4.68 
C 71.906344 4.68 67.327562 6.576594 63.952078 9.952078 
C 60.576594 13.327562 58.68 17.906344 58.68 22.68 
C 58.68 27.453656 60.576594 32.032438 63.952078 35.407922 
C 67.327562 38.783406 71.906344 40.68 76.68 40.68 
L 76.68 40.68 
z
" clip-path="url(#p4becf55ea5)" style="fill: none; stroke: #000000; stroke-width: 2; stroke-linejoin: miter"/>
   </g>
   <g id="line2d_1">
    <path d="M 81.18 22.68 
L 94.68 22.68 
L 99.18 22.68 
" clip-path="url(#p4becf55ea5)" style="fill: none; stroke: #000000; stroke-width: 2; stroke-linecap: round"/>
   </g>
   <g id="patch_3">
    <path d="M 99.18 19.98 
L 108.18 22.68 
L 99.18 25.38 
z
" clip-path="url(#p4becf55ea5)"/>
   </g>
   <g id="line2d_2">
    <path d="M 76.68 15.48 
L 76.68 29.88 
" clip-path="url(#p4becf55ea5)" style="fill: none; stroke: #000000; stroke-width: 2; stroke-linecap: round"/>
   </g>
   <g id="line2d_3">
    <path d="M 69.48 22.68 
L 83.88 22.68 
" clip-path="url(#p4becf55ea5)" style="fill: none; stroke: #000000; stroke-width: 2; stroke-linecap: round"/>
   </g>
   <g id="line2d_4">
    <path d="M 94.68 22.68 
L 94.68 4.68 
L 184.68 4.68 
L 184.68 40.68 
L 94.68 40.68 
L 94.68 22.68 
" clip-path="url(#p4becf55ea5)" style="fill: none; stroke: #000000; stroke-width: 2; stroke-linecap: round"/>
   </g>
   <g id="line2d_5">
    <path d="M 94.68 22.68 
L 94.68 4.68 
L 184.68 4.68 
L 184.68 40.68 
L 94.68 40.68 
L 94.68 22.68 
" clip-path="url(#p4becf55ea5)" style="fill: none; stroke: #000000; stroke-width: 2; stroke-linecap: round"/>
   </g>
   <g id="line2d_6">
    <path d="M 4.68 22.68 
L 4.68 4.68 
L 94.68 4.68 
L 94.68 40.68 
L 4.68 40.68 
L 4.68 22.68 
" clip-path="url(#p4becf55ea5)" style="fill: none; stroke: #000000; stroke-width: 2; stroke-linecap: round"/>
   </g>
   <g id="line2d_7">
    <path d="M 81.18 22.68 
L 94.68 22.68 
L 99.18 22.68 
" clip-path="url(#p4becf55ea5)" style="fill: none; stroke: #000000; stroke-width: 2; stroke-linecap: round"/>
   </g>
   <g id="patch_4">
    <path d="M 99.18 19.98 
L 108.18 22.68 
L 99.18 25.38 
z
" clip-path="url(#p4becf55ea5)"/>
   </g>
   <g id="line2d_8">
    <path d="M 108.18 22.68 
L 121.68 22.68 
L 126.18 22.68 
" clip-path="url(#p4becf55ea5)" style="fill: none; stroke: #000000; stroke-width: 2; stroke-linecap: round"/>
   </g>
   <g id="patch_5">
    <path d="M 126.18 19.98 
L 135.18 22.68 
L 126.18 25.38 
z
" clip-path="url(#p4becf55ea5)"/>
   </g>
   <g id="text_1">
    <!-- R(s) -->
    <g transform="translate(49.634687 26.543125) scale(0.14 -0.14)">
     <defs>
      <path id="DejaVuSans-52" d="M 2841 2188 
Q 3044 2119 3236 1894 
Q 3428 1669 3622 1275 
L 4263 0 
L 3584 0 
L 2988 1197 
Q 2756 1666 2539 1819 
Q 2322 1972 1947 1972 
L 1259 1972 
L 1259 0 
L 628 0 
L 628 4666 
L 2053 4666 
Q 2853 4666 3247 4331 
Q 3641 3997 3641 3322 
Q 3641 2881 3436 2590 
Q 3231 2300 2841 2188 
z
M 1259 4147 
L 1259 2491 
L 2053 2491 
Q 2509 2491 2742 2702 
Q 2975 2913 2975 3322 
Q 2975 3731 2742 3939 
Q 2509 4147 2053 4147 
L 1259 4147 
z
" transform="scale(0.015625)"/>
      <path id="DejaVuSans-28" d="M 1984 4856 
Q 1566 4138 1362 3434 
Q 1159 2731 1159 2009 
Q 1159 1288 1364 580 
Q 1569 -128 1984 -844 
L 1484 -844 
Q 1016 -109 783 600 
Q 550 1309 550 2009 
Q 550 2706 781 3412 
Q 1013 4119 1484 4856 
L 1984 4856 
z
" transform="scale(0.015625)"/>
      <path id="DejaVuSans-73" d="M 2834 3397 
L 2834 2853 
Q 2591 2978 2328 3040 
Q 2066 3103 1784 3103 
Q 1356 3103 1142 2972 
Q 928 2841 928 2578 
Q 928 2378 1081 2264 
Q 1234 2150 1697 2047 
L 1894 2003 
Q 2506 1872 2764 1633 
Q 3022 1394 3022 966 
Q 3022 478 2636 193 
Q 2250 -91 1575 -91 
Q 1294 -91 989 -36 
Q 684 19 347 128 
L 347 722 
Q 666 556 975 473 
Q 1284 391 1588 391 
Q 1994 391 2212 530 
Q 2431 669 2431 922 
Q 2431 1156 2273 1281 
Q 2116 1406 1581 1522 
L 1381 1569 
Q 847 1681 609 1914 
Q 372 2147 372 2553 
Q 372 3047 722 3315 
Q 1072 3584 1716 3584 
Q 2034 3584 2315 3537 
Q 2597 3491 2834 3397 
z
" transform="scale(0.015625)"/>
      <path id="DejaVuSans-29" d="M 513 4856 
L 1013 4856 
Q 1481 4119 1714 3412 
Q 1947 2706 1947 2009 
Q 1947 1309 1714 600 
Q 1481 -109 1013 -844 
L 513 -844 
Q 928 -128 1133 580 
Q 1338 1288 1338 2009 
Q 1338 2731 1133 3434 
Q 928 4138 513 4856 
z
" transform="scale(0.015625)"/>
     </defs>
     <use xlink:href="#DejaVuSans-52"/>
     <use xlink:href="#DejaVuSans-28" transform="translate(69.482422 0)"/>
     <use xlink:href="#DejaVuSans-73" transform="translate(108.496094 0)"/>
     <use xlink:href="#DejaVuSans-29" transform="translate(160.595703 0)"/>
    </g>
   </g>
   <g id="text_2">
    <!-- R(s) -->
    <g transform="translate(49.634687 26.543125) scale(0.14 -0.14)">
     <use xlink:href="#DejaVuSans-52"/>
     <use xlink:href="#DejaVuSans-28" transform="translate(69.482422 0)"/>
     <use xlink:href="#DejaVuSans-73" transform="translate(108.496094 0)"/>
     <use xlink:href="#DejaVuSans-29" transform="translate(160.595703 0)"/>
    </g>
   </g>
   <g id="text_3">
    <!-- + -->
    <g transform="translate(64.814219 26.543125) scale(0.14 -0.14)">
     <defs>
      <path id="DejaVuSans-2b" d="M 2944 4013 
L 2944 2272 
L 4684 2272 
L 4684 1741 
L 2944 1741 
L 2944 0 
L 2419 0 
L 2419 1741 
L 678 1741 
L 678 2272 
L 2419 2272 
L 2419 4013 
L 2944 4013 
z
" transform="scale(0.015625)"/>
     </defs>
     <use xlink:href="#DejaVuSans-2b"/>
    </g>
   </g>
   <g id="text_4">
    <!-- - -->
    <g transform="translate(80.154531 26.543125) scale(0.14 -0.14)">
     <defs>
      <path id="DejaVuSans-2d" d="M 313 2009 
L 1997 2009 
L 1997 1497 
L 313 1497 
L 313 2009 
z
" transform="scale(0.015625)"/>
     </defs>
     <use xlink:href="#DejaVuSans-2d"/>
    </g>
   </g>
   <g id="text_5">
    <!-- $G_c(s)$ -->
    <g transform="translate(122.25 26.543125) scale(0.14 -0.14)">
     <defs>
      <path id="DejaVuSans-Oblique-47" d="M 3494 697 
L 3738 1919 
L 2700 1919 
L 2797 2438 
L 4453 2438 
L 4050 384 
Q 3634 156 3143 32 
Q 2653 -91 2156 -91 
Q 1278 -91 783 396 
Q 288 884 288 1753 
Q 288 2475 589 3126 
Q 891 3778 1422 4213 
Q 1756 4484 2153 4617 
Q 2550 4750 3034 4750 
Q 3472 4750 3873 4639 
Q 4275 4528 4641 4306 
L 4513 3634 
Q 4231 3928 3853 4083 
Q 3475 4238 3047 4238 
Q 2550 4238 2172 4048 
Q 1794 3859 1497 3463 
Q 1244 3125 1098 2667 
Q 953 2209 953 1734 
Q 953 1081 1287 751 
Q 1622 422 2284 422 
Q 2616 422 2925 492 
Q 3234 563 3494 697 
z
" transform="scale(0.015625)"/>
      <path id="DejaVuSans-Oblique-63" d="M 3431 3366 
L 3316 2797 
Q 3109 2947 2876 3022 
Q 2644 3097 2394 3097 
Q 2119 3097 1870 3000 
Q 1622 2903 1453 2725 
Q 1184 2453 1037 2087 
Q 891 1722 891 1331 
Q 891 859 1127 628 
Q 1363 397 1844 397 
Q 2081 397 2348 469 
Q 2616 541 2906 684 
L 2797 116 
Q 2547 13 2283 -39 
Q 2019 -91 1741 -91 
Q 1044 -91 669 257 
Q 294 606 294 1253 
Q 294 1797 489 2255 
Q 684 2713 1069 3078 
Q 1331 3328 1684 3456 
Q 2038 3584 2456 3584 
Q 2700 3584 2940 3529 
Q 3181 3475 3431 3366 
z
" transform="scale(0.015625)"/>
      <path id="DejaVuSans-Oblique-73" d="M 3200 3397 
L 3091 2853 
Q 2863 2978 2609 3040 
Q 2356 3103 2088 3103 
Q 1634 3103 1373 2948 
Q 1113 2794 1113 2528 
Q 1113 2219 1719 2053 
Q 1766 2041 1788 2034 
L 1972 1978 
Q 2547 1819 2739 1644 
Q 2931 1469 2931 1166 
Q 2931 609 2489 259 
Q 2047 -91 1331 -91 
Q 1053 -91 747 -37 
Q 441 16 72 128 
L 184 722 
Q 500 559 806 475 
Q 1113 391 1394 391 
Q 1816 391 2080 572 
Q 2344 753 2344 1031 
Q 2344 1331 1650 1516 
L 1591 1531 
L 1394 1581 
Q 956 1697 753 1886 
Q 550 2075 550 2369 
Q 550 2928 970 3256 
Q 1391 3584 2113 3584 
Q 2397 3584 2667 3537 
Q 2938 3491 3200 3397 
z
" transform="scale(0.015625)"/>
     </defs>
     <use xlink:href="#DejaVuSans-Oblique-47" transform="translate(0 0.125)"/>
     <use xlink:href="#DejaVuSans-Oblique-63" transform="translate(77.490234 -16.28125) scale(0.7)"/>
     <use xlink:href="#DejaVuSans-28" transform="translate(118.710938 0.125)"/>
     <use xlink:href="#DejaVuSans-Oblique-73" transform="translate(157.724609 0.125)"/>
     <use xlink:href="#DejaVuSans-29" transform="translate(209.824219 0.125)"/>
    </g>
   </g>
   <g id="text_6">
    <!-- $G_p(s)$ -->
    <g transform="translate(121.83 25.83) scale(0.14 -0.14)">
     <defs>
      <path id="DejaVuSans-Oblique-70" d="M 3175 2156 
Q 3175 2616 2975 2859 
Q 2775 3103 2400 3103 
Q 2144 3103 1911 2972 
Q 1678 2841 1497 2591 
Q 1319 2344 1212 1994 
Q 1106 1644 1106 1300 
Q 1106 863 1306 627 
Q 1506 391 1875 391 
Q 2147 391 2380 519 
Q 2613 647 2778 891 
Q 2956 1147 3065 1494 
Q 3175 1841 3175 2156 
z
M 1394 2969 
Q 1625 3272 1939 3428 
Q 2253 3584 2638 3584 
Q 3175 3584 3472 3232 
Q 3769 2881 3769 2247 
Q 3769 1728 3584 1258 
Q 3400 788 3053 416 
Q 2822 169 2531 39 
Q 2241 -91 1919 -91 
Q 1547 -91 1294 64 
Q 1041 219 916 525 
L 556 -1331 
L -19 -1331 
L 922 3500 
L 1497 3500 
L 1394 2969 
z
" transform="scale(0.015625)"/>
     </defs>
     <use xlink:href="#DejaVuSans-Oblique-47" transform="translate(0 0.125)"/>
     <use xlink:href="#DejaVuSans-Oblique-70" transform="translate(77.490234 -16.28125) scale(0.7)"/>
     <use xlink:href="#DejaVuSans-28" transform="translate(124.658203 0.125)"/>
     <use xlink:href="#DejaVuSans-Oblique-73" transform="translate(163.671875 0.125)"/>
     <use xlink:href="#DejaVuSans-29" transform="translate(215.771484 0.125)"/>
    </g>
   </g>
   <g id="text_7">
    <!-- $H(s)$ -->
    <g transform="translate(35.26 26.543125) scale(0.14 -0.14)">
     <defs>
      <path id="DejaVuSans-Oblique-48" d="M 1081 4666 
L 1716 4666 
L 1344 2753 
L 3634 2753 
L 4006 4666 
L 4641 4666 
L 3731 0 
L 3097 0 
L 3531 2222 
L 1241 2222 
L 806 0 
L 172 0 
L 1081 4666 
z
" transform="scale(0.015625)"/>
     </defs>
     <use xlink:href="#DejaVuSans-Oblique-48" transform="translate(0 0.125)"/>
     <use xlink:href="#DejaVuSans-28" transform="translate(75.195312 0.125)"/>
     <use xlink:href="#DejaVuSans-Oblique-73" transform="translate(114.208984 0.125)"/>
     <use xlink:href="#DejaVuSans-29" transform="translate(166.308594 0.125)"/>
    </g>
   </g>
   <g id="text_8">
    <!-- R(s) -->
    <g transform="translate(49.634687 26.543125) scale(0.14 -0.14)">
     <use xlink:href="#DejaVuSans-52"/>
     <use xlink:href="#DejaVuSans-28" transform="translate(69.482422 0)"/>
     <use xlink:href="#DejaVuSans-73" transform="translate(108.496094 0)"/>
     <use xlink:href="#DejaVuSans-29" transform="translate(160.595703 0)"/>
    </g>
   </g>
   <g id="text_9">
    <!-- R(s) -->
    <g transform="translate(49.634687 26.543125) scale(0.14 -0.14)">
     <use xlink:href="#DejaVuSans-52"/>
     <use xlink:href="#DejaVuSans-28" transform="translate(69.482422 0)"/>
     <use xlink:href="#DejaVuSans-73" transform="translate(108.496094 0)"/>
     <use xlink:href="#DejaVuSans-29" transform="translate(160.595703 0)"/>
    </g>
   </g>
   <g id="text_10">
    <!-- Y(s) -->
    <g transform="translate(138.78 26.543125) scale(0.14 -0.14)">
     <defs>
      <path id="DejaVuSans-59" d="M -13 4666 
L 666 4666 
L 1959 2747 
L 3244 4666 
L 3922 4666 
L 2272 2222 
L 2272 0 
L 1638 0 
L 1638 2222 
L -13 4666 
z
" transform="scale(0.015625)"/>
     </defs>
     <use xlink:href="#DejaVuSans-59"/>
     <use xlink:href="#DejaVuSans-28" transform="translate(61.083984 0)"/>
     <use xlink:href="#DejaVuSans-73" transform="translate(100.097656 0)"/>
     <use xlink:href="#DejaVuSans-29" transform="translate(152.197266 0)"/>
    </g>
   </g>
   <g id="patch_6">
    <path d="M 94.68 22.68 
C 94.68 22.68 94.68 22.68 94.68 22.68 
C 94.68 22.68 94.68 22.68 94.68 22.68 
C 94.68 22.68 94.68 22.68 94.68 22.68 
C 94.68 22.68 94.68 22.68 94.68 22.68 
C 94.68 22.68 94.68 22.68 94.68 22.68 
C 94.68 22.68 94.68 22.68 94.68 22.68 
C 94.68 22.68 94.68 22.68 94.68 22.68 
C 94.68 22.68 94.68 22.68 94.68 22.68 
z
" clip-path="url(#p4becf55ea5)" style="stroke: #000000; stroke-width: 2; stroke-linejoin: miter"/>
   </g>
  </g>
 </g>
 <defs>
  <clipPath id="p4becf55ea5">
   <rect x="0" y="0" width="189.36" height="45.36"/>
  </clipPath>
 </defs>
</svg>
